<?xml version="1.0" encoding="UTF-8"?>
<svg version="1.1" xmlns="http://www.w3.org/2000/svg" width="1024" height="1024">
<path d="M0 0 C22.38962868 -0.04010881 22.38962868 -0.04010881 31.95703125 -0.04882812 C38.47705909 -0.05479842 44.99707285 -0.06185022 51.51708984 -0.07543945 C56.77553461 -0.08633029 62.03396426 -0.09228996 67.29241943 -0.09487724 C69.29539223 -0.09672033 71.29836423 -0.10031939 73.30133057 -0.10573006 C76.11366544 -0.11302275 78.9259384 -0.11398748 81.73828125 -0.11352539 C82.56043625 -0.11712067 83.38259125 -0.12071594 84.22966003 -0.12442017 C97.44336703 -0.10103307 97.44336703 -0.10103307 101.5625 2.8125 C103 5 103 5 103.0625 6.9375 C101.53985057 9.89323125 99.48320781 11.81962241 97 14 C96.34 14 95.68 14 95 14 C95 14.66 95 15.32 95 16 C92.63944406 17.89735251 90.2744489 19.68092809 87.8125 21.4375 C87.13896484 21.92798828 86.46542969 22.41847656 85.77148438 22.92382812 C82.26511426 25.45867715 78.71900119 27.78500664 75 30 C74.401875 30.598125 73.80375 31.19625 73.1875 31.8125 C70.0931356 34.9068644 66.67226085 37.61541504 63 40 C62.34 40 61.68 40 61 40 C61 40.66 61 41.32 61 42 C59.68 42.33 58.36 42.66 57 43 C57 43.66 57 44.32 57 45 C55.07333879 46.49920261 53.14179816 47.8805859 51.125 49.25 C45.40436262 53.23146344 39.85477806 57.38096809 34.375 61.6875 C26.9391081 67.52532388 19.41136544 73.2268794 11.81201172 78.8503418 C10.25126808 80.01107901 8.69967127 81.18424387 7.15869141 82.37109375 C5 84 5 84 2.89990234 85.34765625 C0.63244307 86.82257004 0.63244307 86.82257004 -2 90 C-2.33 93.96 -2.66 97.92 -3 102 C-12.57 102 -22.14 102 -32 102 C-32 112.23 -32 122.46 -32 133 C-21.77 133 -11.54 133 -1 133 C-0.67 122.77 -0.34 112.54 0 102 C4.95 101.67 9.9 101.34 15 101 C16.65 100.67 18.3 100.34 20 100 C20 99.34 20 98.68 20 98 C25.41176471 94 25.41176471 94 28 94 C28 93.34 28 92.68 28 92 C31.82132943 88.51054781 36.03231242 85.55240237 41 84 C41 83.34 41 82.68 41 82 C42.6796875 80.4921875 42.6796875 80.4921875 44.875 78.875 C45.59429688 78.33617187 46.31359375 77.79734375 47.0546875 77.2421875 C49 76 49 76 51 76 C51 75.34 51 74.68 51 74 C52.73548169 72.55473264 54.53975963 71.1912778 56.375 69.875 C57.37273437 69.15054688 58.37046875 68.42609375 59.3984375 67.6796875 C62 66 62 66 64 66 C64 65.34 64 64.68 64 64 C65.6796875 62.4921875 65.6796875 62.4921875 67.875 60.875 C68.59429688 60.33617187 69.31359375 59.79734375 70.0546875 59.2421875 C72 58 72 58 74 58 C74 57.34 74 56.68 74 56 C76.0347726 54.48360285 78.06574487 53.07224849 80.1875 51.6875 C84.6184117 48.78789558 88.26582962 45.79899973 92 42 C94.8125 40.6875 94.8125 40.6875 97 40 C97 39.34 97 38.68 97 38 C102.41176471 34 102.41176471 34 105 34 C105 33.34 105 32.68 105 32 C108.44107266 29.70595156 109.96839809 29.73706944 114 30 C115 31 115 31 115.3125 33.125 C114.96126505 36.35636153 113.74064425 38.34961285 112.10766602 41.11328125 C110.41132956 44.00269896 108.8745764 46.97381207 107.3125 49.9375 C103.99775324 56.19974592 100.5660681 62.38882496 97.05786133 68.54467773 C96.02813638 70.35748832 95.01299007 72.17780146 94 74 C93.42507813 75.01449219 92.85015625 76.02898437 92.2578125 77.07421875 C90.84739952 80.35496198 90.62944359 82.6951616 90.6875 86.25 C90.69136719 87.28640625 90.69523437 88.3228125 90.69921875 89.390625 C90.74442705 92.15874955 90.74442705 92.15874955 93 94 C97.72623172 94.36355629 101.74368665 94.17764869 106 92 C106.70282271 90.01241738 107.36469515 88.01018213 108 86 C108.97380304 84.24391751 109.99848111 82.51543331 111.0625 80.8125 C116.02451777 72.53200198 119.96794628 63.76066571 124 55 C124.66 55 125.32 55 126 55 C126.12761719 54.4225 126.25523437 53.845 126.38671875 53.25 C127.90770809 47.6698098 130.58560078 42.78377076 135 39 C137.02045442 39.60183749 139.02111039 40.27306096 141 41 C142.62563386 44.25126773 142.1290896 47.82537975 142.11352539 51.39697266 C142.11367142 52.26533249 142.11381744 53.13369232 142.1139679 54.02836609 C142.11326961 56.90695672 142.1054811 59.78548314 142.09765625 62.6640625 C142.09579177 64.65660568 142.09436801 66.64914931 142.09336853 68.64169312 C142.08954569 73.89259094 142.07971737 79.14346122 142.06866455 84.39434814 C142.05844543 89.74987414 142.05386983 95.10540457 142.04882812 100.4609375 C142.03809491 110.97397045 142.02102127 121.48698294 142 132 C143.145896 131.99476318 144.29179199 131.98952637 145.47241211 131.98413086 C149.70840682 131.96608283 153.94439812 131.95456872 158.18041992 131.94506836 C160.01668875 131.94002769 161.85295354 131.93319523 163.68920898 131.92456055 C166.32276401 131.91248328 168.95626616 131.90676919 171.58984375 131.90234375 C172.41588608 131.89718246 173.24192841 131.89202118 174.09300232 131.88670349 C176.06236368 131.88650795 178.03161614 131.93795848 180 132 C181 133 181 133 181.11352539 136.05102539 C181.11327443 137.39991269 181.10771815 138.74880645 181.09765625 140.09765625 C181.09515869 141.39453369 181.09266113 142.69141113 181.09008789 144.02758789 C181.07643188 146.51986938 181.07643188 146.51986938 181.0625 149.0625 C181.041875 154.321875 181.02125 159.58125 181 165 C198.82 165 216.64 165 235 165 C235 154.44 235 143.88 235 133 C237.29261134 131.85369433 238.57880456 131.87330682 241.12670898 131.87060547 C241.97776718 131.86745331 242.82882538 131.86430115 243.70567322 131.86105347 C244.62651199 131.8630777 245.54735077 131.86510193 246.49609375 131.8671875 C247.44057877 131.86623077 248.38506378 131.86527405 249.35816956 131.86428833 C251.35800239 131.86360707 253.35783742 131.86545758 255.35766602 131.86962891 C258.42143726 131.87497199 261.4850615 131.86968514 264.54882812 131.86328125 C266.48958366 131.86394216 268.4303391 131.86522358 270.37109375 131.8671875 C271.74931557 131.86415115 271.74931557 131.86415115 273.15538025 131.86105347 C274.43669579 131.86578171 274.43669579 131.86578171 275.74389648 131.87060547 C276.49509262 131.87140106 277.24628876 131.87219666 278.02024841 131.87301636 C280 132 280 132 283 133 C283 143.56 283 154.12 283 165 C273.1 165 263.2 165 253 165 C253 174.57 253 184.14 253 194 C259.87992431 193.96071366 259.87992431 193.96071366 266.75976562 193.90991211 C267.63310547 193.90741455 268.50644531 193.90491699 269.40625 193.90234375 C270.72592773 193.89448853 270.72592773 193.89448853 272.07226562 193.88647461 C275.73095659 194.02834346 279.36683362 194.5458542 283 195 C283 205.56 283 216.12 283 227 C278.59078102 227.8818438 274.62284385 228.14547484 270.171875 228.1328125 C269.42343323 228.13376923 268.67499146 228.13472595 267.90386963 228.13571167 C266.3237703 228.13639018 264.74366814 228.13455891 263.16357422 228.13037109 C260.77174443 228.12504839 258.38010501 228.13031164 255.98828125 228.13671875 C254.44531209 228.13605732 252.90234305 228.13477483 251.359375 228.1328125 C250.65592957 228.13483673 249.95248413 228.13686096 249.22772217 228.13894653 C244.02531275 228.11496841 239.24387391 227.58265266 234 227 C234 216.44 234 205.88 234 195 C223.77 195 213.54 195 203 195 C203 205.23 203 215.46 203 226 C212.07983177 225.92093735 212.07983177 225.92093735 221.15942383 225.81982422 C222.28888428 225.8148291 223.41834473 225.80983398 224.58203125 225.8046875 C225.73936768 225.79421387 226.8967041 225.78374023 228.08911133 225.77294922 C231 226 231 226 234 228 C234.36076355 230.44241333 234.36076355 230.44241333 234.34057617 233.55126953 C234.34023628 235.29284836 234.34023628 235.29284836 234.33988953 237.0696106 C234.32440567 238.32796722 234.30892181 239.58632385 234.29296875 240.8828125 C234.28872391 242.16735321 234.28447906 243.45189392 234.28010559 244.77536011 C234.2686468 248.19172641 234.23917143 251.60771056 234.20599365 255.02392578 C234.17531462 258.50938751 234.16160494 261.99491094 234.14648438 265.48046875 C234.11430221 272.32046957 234.06309376 279.16021644 234 286 C234.58437836 285.99777939 235.16875671 285.99555878 235.77084351 285.99327087 C241.83745718 285.97119612 247.90405949 285.9560842 253.97070312 285.94506836 C256.23665836 285.94003074 258.50261033 285.93320048 260.76855469 285.92456055 C264.02019047 285.91247004 267.27178339 285.90676608 270.5234375 285.90234375 C271.54118256 285.89718246 272.55892761 285.89202118 273.60751343 285.88670349 C274.54833771 285.88662796 275.48916199 285.88655243 276.45849609 285.88647461 C277.70425919 285.88314369 277.70425919 285.88314369 278.97518921 285.87974548 C281 286 281 286 283 287 C283 297.56 283 308.12 283 319 C256.99999027 320.26060653 231.02473332 320.08963743 205 320 C204.67 330.23 204.34 340.46 204 351 C213.9 351 223.8 351 234 351 C234 361.23 234 371.46 234 382 C250.17 382 266.34 382 283 382 C283.1546875 393.88 283.1546875 393.88 283.3125 406 C283.35802002 408.4853125 283.40354004 410.970625 283.45043945 413.53125 C283.4650547 415.52081964 283.47779291 417.51040433 283.48828125 419.5 C283.526651 421.02560547 283.526651 421.02560547 283.5657959 422.58203125 C283.56987621 429.29333181 282.46194834 433.86012185 278 439 C271.38003876 444.24080265 265.98472508 445.29537626 257.8034668 445.22705078 C256.88590103 445.22734283 255.96833527 445.22763489 255.02296448 445.22793579 C251.99828547 445.22654547 248.97385458 445.21099816 245.94921875 445.1953125 C243.84886306 445.19158132 241.74850563 445.18873484 239.64814758 445.18673706 C234.1259987 445.17910892 228.60395538 445.15946739 223.08184814 445.1373291 C217.44455391 445.11685307 211.80724259 445.10773158 206.16992188 445.09765625 C195.11322746 445.07622078 184.05663903 445.04104523 173 445 C173 434.77 173 424.54 173 414 C165.79097614 414.03930202 165.79097614 414.03930202 158.58203125 414.09008789 C157.21111328 414.09383423 157.21111328 414.09383423 155.8125 414.09765625 C154.42998047 414.10551147 154.42998047 414.10551147 153.01953125 414.11352539 C149.33025469 413.97481957 145.66337393 413.45792174 142 413 C142 423.56 142 434.12 142 445 C121.54 445 101.08 445 80 445 C80 403.75 80 362.5 80 320 C70.43 320 60.86 320 51 320 C51.01047363 322.77647949 51.02094727 325.55295898 51.03173828 328.41357422 C51.06482406 337.56980301 51.08694806 346.72603439 51.10362434 355.88230705 C51.11407774 361.43573026 51.12826523 366.98909241 51.15087891 372.54248047 C51.17255192 377.89816008 51.1845569 383.25378082 51.18975449 388.60950089 C51.19346023 390.65651502 51.20069624 392.7035258 51.21146011 394.75051498 C51.22590142 397.60962733 51.22798104 400.46849399 51.22705078 403.32763672 C51.23424133 404.18071411 51.24143188 405.0337915 51.24884033 405.91271973 C51.22810432 411.77189568 51.22810432 411.77189568 49 414 C46.11083984 414.22705078 46.11083984 414.22705078 42.4609375 414.1953125 C41.15898438 414.18886719 39.85703125 414.18242188 38.515625 414.17578125 C37.13541405 414.15906929 35.75520571 414.14213939 34.375 414.125 C32.98698548 414.11497006 31.59896411 414.10584423 30.2109375 414.09765625 C26.80711974 414.07401863 23.40364494 414.04106867 20 414 C20.00785522 415.35532837 20.00785522 415.35532837 20.01586914 416.73803711 C20.03287686 420.07951489 20.04543333 423.42094692 20.05493164 426.76245117 C20.05997101 428.21070073 20.06680253 429.65894517 20.07543945 431.10717773 C20.08752247 433.18474588 20.09323211 435.26224697 20.09765625 437.33984375 C20.10551147 439.21724243 20.10551147 439.21724243 20.11352539 441.13256836 C20 444 20 444 19 445 C16.44406185 445.09506198 13.91535694 445.12555454 11.35913086 445.11352539 C10.13975122 445.11370619 10.13975122 445.11370619 8.89573765 445.11389065 C6.25207896 445.11314147 3.6084899 445.10551303 0.96484375 445.09765625 C-0.66239386 445.09618685 -2.28963194 445.09516613 -3.91687012 445.09460449 C-9.9654206 445.08935143 -16.01396097 445.07539035 -22.0625 445.0625 C-42.3265625 445.0315625 -42.3265625 445.0315625 -63 445 C-63 413.98 -63 382.96 -63 351 C-52.77 351 -42.54 351 -32 351 C-32 371.13 -32 391.26 -32 412 C-21.77 412 -11.54 412 -1 412 C-1 402.1 -1 392.2 -1 382 C5.27 382 11.54 382 18 382 C17.67 361.54 17.34 341.08 17 320 C9.7296875 320.0309375 9.7296875 320.0309375 2.3125 320.0625 C-19.46111085 319.99550427 -41.23166031 319.48374088 -63 319 C-63 267.52 -63 216.04 -63 163 C-53.43 163 -43.86 163 -34 163 C-34 158.38 -34 153.76 -34 149 C-33.67 144.05 -33.34 139.1 -33 134 C-54.78 134 -76.56 134 -99 134 C-99 143.9 -99 153.8 -99 164 C-100.87788672 165.87788672 -103.59165909 165.12008587 -106.08978271 165.12442017 C-106.96515686 165.12082489 -107.84053101 165.11722961 -108.74243164 165.11352539 C-110.11790413 165.11374443 -110.11790413 165.11374443 -111.52116394 165.1139679 C-114.56751836 165.1132684 -117.61381245 165.10547428 -120.66015625 165.09765625 C-122.76622993 165.0957922 -124.87230403 165.09436824 -126.9783783 165.09336853 C-132.53342883 165.08954231 -138.08845341 165.07971114 -143.64349365 165.06866455 C-149.3072474 165.05845267 -154.97100533 165.05387139 -160.63476562 165.04882812 C-171.75652369 165.03808896 -182.87825563 165.02049132 -194 165 C-194 174.9 -194 184.8 -194 195 C-225.35 195 -256.7 195 -289 195 C-289.495 180.645 -289.495 180.645 -290 166 C-300.23 165.67 -310.46 165.34 -321 165 C-321 144.54 -321 124.08 -321 103 C-275.46 103 -229.92 103 -183 103 C-183 112.57 -183 122.14 -183 132 C-165.84 132 -148.68 132 -131 132 C-131.33 129.03 -131.66 126.06 -132 123 C-132.08778909 120.03066317 -132.14089545 117.09215057 -132.125 114.125 C-132.12886719 113.37992188 -132.13273438 112.63484375 -132.13671875 111.8671875 C-132.13093143 108.64943889 -132.0245827 106.07374811 -131 103 C-108.56 103 -86.12 103 -63 103 C-63 70.33 -63 37.66 -63 4 C-34 4 -34 4 -32 5 C-31.67 24.14 -31.34 43.28 -31 63 C-21.1 63 -11.2 63 -1 63 C-0.67 42.21 -0.34 21.42 0 0 Z M51 102 C51 122.46 51 142.92 51 164 C59.78057181 164.6271837 68.1348908 165.12037317 76.8671875 164.87890625 C77.91278839 164.85529526 78.95838928 164.83168427 80.03567505 164.80735779 C83.3156308 164.73190052 86.5952761 164.64738299 89.875 164.5625 C92.12368365 164.50916064 94.37238162 164.45642151 96.62109375 164.40429688 C102.08097887 164.27755673 107.54035073 164.13851569 113 164 C113 154.76 113 145.52 113 136 C109.7825 135.835 106.565 135.67 103.25 135.5 C102.26290039 135.44779297 101.27580078 135.39558594 100.25878906 135.34179688 C93.50173582 135.00831129 86.76454335 134.94666589 80 135 C80.00523682 134.03586182 80.01047363 133.07172363 80.01586914 132.07836914 C80.03392118 128.51327436 80.04543274 124.94818364 80.05493164 121.38305664 C80.0599714 119.83780234 80.0668032 118.29255284 80.07543945 116.74731445 C80.08752076 114.53074971 80.09323173 112.31424782 80.09765625 110.09765625 C80.10539818 109.05545677 80.10539818 109.05545677 80.11329651 107.99220276 C80.11349277 106.3277067 80.06189129 104.66334501 80 103 C79.67 102.67 79.34 102.34 79 102 C69.76 102 60.52 102 51 102 Z M-259 134 C-259.02465622 138.25414623 -259.04283899 142.50825498 -259.05493164 146.76245117 C-259.05997101 148.21070073 -259.06680253 149.65894517 -259.07543945 151.10717773 C-259.08752247 153.18474588 -259.09323211 155.26224697 -259.09765625 157.33984375 C-259.10289307 158.59144287 -259.10812988 159.84304199 -259.11352539 161.13256836 C-259.32887035 163.89732294 -259.32887035 163.89732294 -258 165 C-255.70848583 165.08790975 -253.41427476 165.10694038 -251.12109375 165.09765625 C-249.86482178 165.09515869 -248.6085498 165.09266113 -247.31420898 165.09008789 C-245.70489502 165.08098389 -244.09558105 165.07187988 -242.4375 165.0625 C-237.343125 165.041875 -232.24875 165.02125 -227 165 C-227 154.77 -227 144.54 -227 134 C-231.723125 133.814375 -236.44625 133.62875 -241.3125 133.4375 C-242.79919189 133.37618896 -244.28588379 133.31487793 -245.81762695 133.25170898 C-246.98769287 133.20860596 -248.15775879 133.16550293 -249.36328125 133.12109375 C-250.56251221 133.0739624 -251.76174316 133.02683105 -252.99731445 132.97827148 C-256.05225378 132.84555423 -256.05225378 132.84555423 -259 134 Z M-32 165 C-32 174.57 -32 184.14 -32 194 C-26.43282932 194.69589633 -21.92021044 195.08450789 -16.4375 194.87890625 C-15.76074219 194.85529526 -15.08398438 194.83168427 -14.38671875 194.80735779 C-12.25754382 194.73171848 -10.12882863 194.64727636 -8 194.5625 C-6.5429901 194.50917895 -5.0859588 194.45643955 -3.62890625 194.40429688 C-0.08556666 194.27731713 3.45701508 194.13839785 7 194 C7 184.43 7 174.86 7 165 C-5.87 165 -18.74 165 -32 165 Z M51 195 C50.67 205.89 50.34 216.78 50 228 C33.17 228 16.34 228 -1 228 C-1 237.24 -1 246.48 -1 256 C-14.25 255.9375 -14.25 255.9375 -18.41113281 255.90991211 C-19.49749023 255.90741455 -20.58384766 255.90491699 -21.703125 255.90234375 C-22.81333008 255.89710693 -23.92353516 255.89187012 -25.06738281 255.88647461 C-28.2121387 255.90794907 -28.2121387 255.90794907 -32 257 C-32 266.57 -32 276.14 -32 286 C-15.5 286 1 286 18 286 C19.16624312 272.01187451 19.16624312 272.01187451 19 258 C29.23 258.33 39.46 258.66 50 259 C50.33 267.91 50.66 276.82 51 286 C60.57 286 70.14 286 80 286 C80 276.76 80 267.52 80 258 C90.89 258 101.78 258 113 258 C113 267.24 113 276.48 113 286 C122.24 286 131.48 286 141 286 C141.06058594 282.57882812 141.12117187 279.15765625 141.18359375 275.6328125 C141.24552775 272.29327501 141.30885529 268.95376663 141.37231445 265.61425781 C141.41543651 263.30601631 141.45712598 260.99774756 141.49731445 258.68945312 C141.55557191 255.35798963 141.61910203 252.02666046 141.68359375 248.6953125 C141.70030624 247.67511017 141.71701874 246.65490784 141.73423767 245.60379028 C141.75418289 244.62352875 141.77412811 243.64326721 141.79467773 242.63330078 C141.81022202 241.78502716 141.8257663 240.93675354 141.84178162 240.06277466 C142.06729785 235.6972553 142.56503537 231.34964626 143 227 C152.57 226.67 162.14 226.34 172 226 C172 215.77 172 205.54 172 195 C152.53 195 133.06 195 113 195 C113 205.89 113 216.78 113 228 C102.11 228 91.22 228 80 228 C80 217.11 80 206.22 80 195 C70.43 195 60.86 195 51 195 Z M172 257 C172 266.57 172 276.14 172 286 C182.23 286 192.46 286 203 286 C203 276.43 203 266.86 203 257 C192.77 257 182.54 257 172 257 Z M113 320 C113 330.23 113 340.46 113 351 C132.47 351 151.94 351 172 351 C172 340.77 172 330.54 172 320 C164.60946643 319.84865007 157.21903104 319.69825324 149.82830811 319.55745697 C146.38677961 319.49160817 142.94530971 319.42391749 139.50390625 319.35180664 C135.55739498 319.26919568 131.61074842 319.19491287 127.6640625 319.12109375 C125.80933823 319.08054115 125.80933823 319.08054115 123.91714478 319.03916931 C122.77611298 319.01907303 121.63508118 318.99897675 120.45947266 318.97827148 C119.451315 318.95828598 118.44315735 318.93830048 117.40444946 318.91770935 C114.98618409 318.83342518 114.98618409 318.83342518 113 320 Z M113 382 C113 391.9 113 401.8 113 412 C122.24 412 131.48 412 141 412 C141 402.1 141 392.2 141 382 C131.76 382 122.52 382 113 382 Z M204 383 C203.91232888 385.07262076 203.89304127 387.14820294 203.90234375 389.22265625 C203.90556641 390.48271484 203.90878906 391.74277344 203.91210938 393.04101562 C203.92046597 394.38151109 203.92893093 395.72200588 203.9375 397.0625 C203.9425134 398.40689942 203.94707658 399.7513006 203.95117188 401.09570312 C203.96300512 404.39717941 203.97949029 407.69856803 204 411 C207.2180665 412.07268883 209.56293914 412.12923759 212.9453125 412.1328125 C214.68361328 412.13474609 214.68361328 412.13474609 216.45703125 412.13671875 C217.66746094 412.13285156 218.87789062 412.12898438 220.125 412.125 C221.34316406 412.12886719 222.56132813 412.13273437 223.81640625 412.13671875 C224.97269531 412.13542969 226.12898437 412.13414062 227.3203125 412.1328125 C228.91770264 412.13112061 228.91770264 412.13112061 230.54736328 412.12939453 C232.94592694 412.27703024 232.94592694 412.27703024 234 411 C234.08775605 408.85441173 234.10695219 406.70595579 234.09765625 404.55859375 C234.09282227 402.60083008 234.09282227 402.60083008 234.08789062 400.60351562 C234.07953401 399.2148431 234.07106905 397.82617123 234.0625 396.4375 C234.05748666 395.04492344 234.05292347 393.65234519 234.04882812 392.25976562 C234.03699434 388.8398013 234.0205088 385.41992156 234 382 C229.8882744 381.97534254 225.77657722 381.95716041 221.66479492 381.94506836 C220.26504772 381.9400292 218.8653058 381.93319784 217.46557617 381.92456055 C215.45754223 381.9124768 213.44947043 381.90730193 211.44140625 381.90234375 C210.23170166 381.89710693 209.02199707 381.89187012 207.77563477 381.88647461 C205.09187983 381.68224715 205.09187983 381.68224715 204 383 Z " fill="#FFFFFF" transform="translate(501,399)"/>
<path d="M0 0 C0.82715515 -0.00085602 1.6543103 -0.00171204 2.50653076 -0.00259399 C5.28458313 -0.00424807 8.0625751 0.00127268 10.84062195 0.00672913 C12.86371706 0.00703547 14.88681228 0.00690195 16.90990734 0.00636387 C22.32962881 0.00613803 27.74932823 0.01193563 33.16904449 0.0189743 C38.25394765 0.02466749 43.33884543 0.02493733 48.42375183 0.02565002 C63.29667956 0.03089821 78.16960318 0.04485935 93.04252625 0.05775452 C126.26940125 0.07837952 159.49627625 0.09900452 193.73002625 0.12025452 C193.73002625 73.38025452 193.73002625 146.64025452 193.73002625 222.12025452 C121.46002625 222.12025452 49.19002625 222.12025452 -25.26997375 222.12025452 C-25.31122375 188.41900452 -25.35247375 154.71775452 -25.39497375 119.99525452 C-25.41318176 109.34743713 -25.43138977 98.69961975 -25.45014954 87.72914124 C-25.45918274 74.74354553 -25.45918274 74.74354553 -25.46086121 68.66764832 C-25.4627272 64.41705749 -25.47023296 60.16651644 -25.48112488 55.91593933 C-25.49482957 50.49598906 -25.49895853 45.07611132 -25.49611831 39.65614533 C-25.49671233 37.66582212 -25.50068615 35.6754964 -25.50840402 33.68518806 C-25.51834049 30.99815818 -25.51595783 28.31141065 -25.51048279 25.62437439 C-25.51630812 24.84443178 -25.52213345 24.06448917 -25.5281353 23.26091194 C-25.48563663 15.50918431 -23.3257845 9.87542813 -18.26997375 4.12025452 C-12.6317835 -0.10838818 -6.82267635 -0.02576833 0 0 Z M6.73002625 34.12025452 C6.73002625 85.27025452 6.73002625 136.42025452 6.73002625 189.12025452 C44.81408875 189.15119202 44.81408875 189.15119202 83.66752625 189.18275452 C91.69830505 189.19185852 99.72908386 189.20096252 108.0032196 189.21034241 C115.1722944 189.21368586 115.1722944 189.21368586 122.34136963 189.21569824 C125.54633266 189.21663374 128.75127929 189.22039642 131.95623779 189.22583008 C136.03656671 189.23265687 140.11687157 189.2347517 144.19720566 189.23332679 C145.69955521 189.23362502 147.20190555 189.23562695 148.70425022 189.23946965 C150.72393955 189.24439815 152.74364197 189.24265831 154.76333618 189.24050903 C156.46542693 189.24189172 156.46542693 189.24189172 158.20190334 189.24330235 C160.66715499 189.4070909 160.66715499 189.4070909 161.73002625 188.12025452 C161.82871401 186.26758047 161.85634791 184.41110189 161.85700989 182.55580139 C161.85982971 181.34738083 161.86264954 180.13896027 161.86555481 178.8939209 C161.86361012 177.54228196 161.86156193 176.19064316 161.85942078 174.83900452 C161.86077488 173.42490595 161.86255487 172.01080774 161.86473083 170.59671021 C161.86930737 166.74297351 161.86751384 162.88926346 161.86435175 159.03552628 C161.86182532 155.00248898 161.86416685 150.96945401 161.86573792 146.93641663 C161.86756045 140.15377899 161.86515285 133.37115222 161.86039734 126.58851624 C161.85497207 118.76054444 161.85670436 110.93259876 161.86222374 103.10462761 C161.86677345 96.38180252 161.86739581 89.65898527 161.86478508 82.93615913 C161.86323025 78.92232461 161.86300635 74.90850231 161.86632156 70.89466858 C161.86922664 67.11247995 161.86717643 63.33032463 161.86142731 59.54813957 C161.86011303 58.16512037 161.86047099 56.78209833 161.86268997 55.39908028 C161.86545472 53.49958018 161.8613611 51.60007391 161.85700989 49.70057678 C161.85663286 48.64089188 161.85625584 47.58120697 161.85586739 46.4894104 C161.70133867 42.35219954 161.18722334 38.23502834 160.73002625 34.12025452 C109.91002625 34.12025452 59.09002625 34.12025452 6.73002625 34.12025452 Z " fill="#FFFFFF" transform="translate(205.2699737548828,241.87974548339844)"/>
<path d="M0 0 C0.88305059 -0.00155999 1.76610119 -0.00311998 2.67591089 -0.00472724 C5.65240108 -0.00873477 8.6288408 -0.00554855 11.60533142 -0.00241089 C13.73205597 -0.00376503 15.85878028 -0.00554503 17.98550415 -0.00772095 C23.77453026 -0.01229348 29.56353862 -0.01050652 35.35256505 -0.00734186 C41.39795687 -0.00481767 47.44334713 -0.00715593 53.48873901 -0.00872803 C63.64153823 -0.01054941 73.79433018 -0.00814409 83.9471283 -0.00338745 C95.7032546 0.00205657 107.45936356 0.00029137 119.21548945 -0.00521386 C129.29104736 -0.00974413 139.36660004 -0.010396 149.44215864 -0.00777519 C155.46781062 -0.00621213 161.49345444 -0.00601946 167.51910591 -0.00931168 C173.18167627 -0.0121892 178.84422415 -0.01021689 184.50679207 -0.00441742 C186.59140994 -0.00308924 188.67602968 -0.0034849 190.76064682 -0.00568008 C193.59346827 -0.00838931 196.42621649 -0.00501329 199.2590332 0 C200.51328483 -0.00334608 200.51328483 -0.00334608 201.79287487 -0.00675976 C207.45187485 0.01283372 207.45187485 0.01283372 208.56602478 1.12698364 C208.66395078 3.97169197 208.69594971 6.79212269 208.6862793 9.63725281 C208.68756093 10.99223205 208.68756093 10.99223205 208.68886846 12.37458462 C208.69052604 15.42561555 208.68499738 18.47659247 208.67955017 21.52761841 C208.67926833 23.70507811 208.67942597 25.88253791 208.67999268 28.05999756 C208.68028078 33.99157561 208.67438194 39.92313363 208.66741872 45.854707 C208.66118736 52.04604571 208.66058156 58.23738483 208.65939331 64.4287262 C208.6564566 75.49412212 208.64922647 86.55950971 208.63975059 97.62490182 C208.62780629 111.64684748 208.62162403 125.66879199 208.61634839 139.69074166 C208.60588253 167.16949413 208.58828184 194.64823837 208.56602478 222.12698364 C182.2708996 222.26722801 155.97583059 222.3729913 129.68040657 222.43785667 C117.47060255 222.46877714 105.26103108 222.51092346 93.05137634 222.57962036 C82.4077825 222.6394773 71.76435711 222.67814594 61.12059963 222.69151461 C55.48622015 222.69932761 49.85232253 222.71765287 44.21809769 222.76136398 C38.9107512 222.80220406 33.60408333 222.81462949 28.29659462 222.80562973 C26.35278824 222.80727526 24.40895828 222.81914199 22.46528816 222.84221649 C3.1283307 223.06044396 3.1283307 223.06044396 -4.43397522 216.12698364 C-10.03854895 210.03827385 -10.5839772 204.88857202 -10.55422974 196.90133667 C-10.55508416 196.06487429 -10.55593859 195.22841191 -10.5568189 194.36660218 C-10.55846787 191.55981963 -10.55296184 188.75309664 -10.54750061 185.94631958 C-10.54721859 183.93590293 -10.54737677 181.92548617 -10.54794312 179.91506958 C-10.5482305 174.45266174 -10.54234327 168.99027578 -10.53536916 163.52787304 C-10.52912583 157.82102252 -10.52853104 152.11417152 -10.52734375 146.40731812 C-10.52423333 135.59849326 -10.51602382 124.7896785 -10.50599426 113.98085809 C-10.49482416 101.67628495 -10.48932041 89.37171133 -10.48429883 77.06713438 C-10.47384099 51.7537452 -10.45624712 26.44036499 -10.43397522 1.12698364 C-7.17429714 -0.5028554 -3.58174494 -0.00958091 0 0 Z M21.56602478 32.12698364 C21.56602478 83.60698364 21.56602478 135.08698364 21.56602478 188.12698364 C24.83327856 189.21606824 27.21355338 189.2527986 30.65260315 189.25396729 C31.92581924 189.25678711 33.19903534 189.25960693 34.51083374 189.26251221 C35.92457595 189.26056786 37.33831801 189.25851969 38.75205994 189.25637817 C40.23854617 189.25773294 41.72503207 189.25951331 43.21151733 189.26168823 C47.25054257 189.26625274 51.2895423 189.26447724 55.32856798 189.26130915 C59.5495158 189.25878144 63.7704614 189.26112415 67.9914093 189.26269531 C75.07813409 189.2645154 82.16484845 189.26211448 89.25157166 189.25735474 C97.45578457 189.25190823 105.65997266 189.25367824 113.86418498 189.25918114 C120.89944917 189.26371184 127.93470588 189.26436316 134.96997106 189.26174247 C139.17578691 189.26018 143.38159106 189.25998521 147.58740616 189.26327896 C151.53867576 189.26615719 155.48991317 189.2641829 159.44117928 189.2583847 C160.89528792 189.25705702 162.34939926 189.25745136 163.80350685 189.25964737 C165.78014151 189.26235841 167.75678207 189.25836446 169.7334137 189.25396729 C170.84212137 189.25359026 171.95082905 189.25321323 173.09313393 189.25282478 C175.50961236 189.40681475 175.50961236 189.40681475 176.56602478 188.12698364 C176.66489784 186.1594987 176.69234731 184.18841245 176.69300842 182.21844482 C176.69582825 180.93404007 176.69864807 179.64963531 176.70155334 178.3263092 C176.69960872 176.88958726 176.69756053 175.45286546 176.69541931 174.0161438 C176.69677332 172.51349342 176.69855325 171.01084338 176.70072937 169.50819397 C176.70530456 165.41519886 176.70351359 161.32222884 176.70035028 157.22923326 C176.69782619 152.95315513 176.70016445 148.6770792 176.70173645 144.40100098 C176.7035584 137.21655897 176.7011516 130.03212722 176.69639587 122.84768677 C176.69095734 114.5356284 176.69271284 106.22359458 176.69822228 97.91153681 C176.70275763 90.78456271 176.70340176 83.65759601 176.70078361 76.53062093 C176.69922264 72.26993811 176.6990221 68.00926683 176.7023201 63.74858475 C176.70520478 59.74152285 176.70321207 55.73449263 176.69742584 51.72743416 C176.69610128 50.25481659 176.69648723 48.78219637 176.69868851 47.30957985 C176.70141197 45.3028841 176.69739472 43.29618255 176.69300842 41.28948975 C176.6926314 40.16527933 176.69225437 39.04106892 176.69186592 37.88279152 C176.68737799 35.03667155 176.68737799 35.03667155 175.56602478 32.12698364 C124.74602478 32.12698364 73.92602478 32.12698364 21.56602478 32.12698364 Z " fill="#FFFFFF" transform="translate(190.43397521972656,621.8730163574219)"/>
<path d="M0 0 C4.40802625 2.16394016 7.23139226 4.38196867 9 9 C9.68566194 15.31380366 9.65848401 19.68333397 6 25 C3.7857376 27.46422653 1.4327943 29.77635887 -0.93359375 32.09375 C-1.60793961 32.76289429 -2.28228546 33.43203857 -2.97706604 34.12145996 C-5.12582814 36.25246781 -7.28116669 38.37665582 -9.4375 40.5 C-11.58939293 42.62419029 -13.73977676 44.74985349 -15.88722229 46.87854004 C-17.22113501 48.2002884 -18.5577121 49.51935493 -19.89732361 50.83532715 C-23.17515898 54.07810647 -26.14646451 57.36918794 -29 61 C-30.66666667 62.33333333 -32.33333333 63.66666667 -34 65 C-34.66 65.825 -35.32 66.65 -36 67.5 C-38.11041721 70.13802151 -40.34322642 71.92642062 -43 74 C-45.70734803 76.57198063 -48.13700196 79.1678274 -50.5 82.0625 C-52.82295015 84.79196642 -55.18449647 86.81016392 -58 89 C-58.33 89.66 -58.66 90.32 -59 91 C-59.66 91 -60.32 91 -61 91 C-61 91.66 -61 92.32 -61 93 C-62.609375 94.55078125 -62.609375 94.55078125 -64.75 96.3125 C-67.10060645 98.30558414 -69.06918358 100.08647948 -71 102.5 C-72.73441928 104.6680241 -74.31757321 106.18869168 -76.421875 107.9609375 C-81.4322543 112.29919275 -86.10964698 116.95888789 -90.78320312 121.65283203 C-92.25798626 123.13301551 -93.73809464 124.60772434 -95.21875 126.08203125 C-96.17219608 127.03613758 -97.12533221 127.99055378 -98.078125 128.9453125 C-99.35284668 130.22172607 -99.35284668 130.22172607 -100.65332031 131.52392578 C-102.92311156 133.91887198 -104.97028987 136.40071144 -107 139 C-108.625 140.8125 -108.625 140.8125 -110 142 C-110.66 142 -111.32 142 -112 142 C-112.2371875 142.56203125 -112.474375 143.1240625 -112.71875 143.703125 C-114.28947697 146.51894042 -116.21471464 148.47955416 -118.5 150.75 C-119.69109375 151.94882812 -119.69109375 151.94882812 -120.90625 153.171875 C-123 155 -123 155 -125 155 C-125 155.66 -125 156.32 -125 157 C-126.62463572 158.72803107 -128.28926996 160.35928738 -130 162 C-131.37580749 163.37431784 -132.74829601 164.75196191 -134.11845398 166.13191223 C-134.90495331 166.92130188 -135.69145264 167.71069153 -136.50178528 168.52400208 C-137.35028549 169.37564438 -138.19878571 170.22728668 -139.07299805 171.10473633 C-148.27234634 180.33675509 -157.47674248 189.5637244 -166.68411541 198.78773975 C-172.25541978 204.36938696 -177.82481157 209.95291881 -183.38989258 215.54077148 C-188.25456733 220.42534111 -193.1227134 225.30641919 -197.99510986 230.18328685 C-200.57204285 232.76283086 -203.14717552 235.34411696 -205.71814537 237.92960548 C-208.57842352 240.80591095 -211.44641679 243.67439917 -214.31518555 246.54223633 C-215.16975845 247.40399979 -216.02433136 248.26576324 -216.90480042 249.15364075 C-217.68284027 249.92893127 -218.46088013 250.7042218 -219.26249695 251.50300598 C-219.93997325 252.18232587 -220.61744955 252.86164576 -221.31545544 253.56155109 C-223 255 -223 255 -225 255 C-225.26425781 255.5887793 -225.52851562 256.17755859 -225.80078125 256.78417969 C-227.04368944 259.08072584 -228.35006481 260.60833166 -230.1875 262.453125 C-230.80367187 263.071875 -231.41984375 263.690625 -232.0546875 264.328125 C-232.69664062 264.96234375 -233.33859375 265.5965625 -234 266.25 C-234.64195312 266.8996875 -235.28390625 267.549375 -235.9453125 268.21875 C-236.56148437 268.83234375 -237.17765625 269.4459375 -237.8125 270.078125 C-238.37582031 270.63918945 -238.93914063 271.20025391 -239.51953125 271.77832031 C-241 273 -241 273 -243 273 C-243.2371875 273.56203125 -243.474375 274.1240625 -243.71875 274.703125 C-245.28947697 277.51894042 -247.21471464 279.47955416 -249.5 281.75 C-250.2940625 282.54921875 -251.088125 283.3484375 -251.90625 284.171875 C-254 286 -254 286 -256 286 C-256.33 286.99 -256.66 287.98 -257 289 C-260.77874889 291.45022034 -264.6150182 293 -269.125 293 C-274.3668669 291.17674195 -279.12700489 288.96788737 -282 284 C-282.36328125 280.90625 -282.36328125 280.90625 -282.3125 277.5 C-282.30863281 276.3759375 -282.30476562 275.251875 -282.30078125 274.09375 C-282.01644131 271.16911066 -281.52133407 269.47292551 -280 267 C-279.34 267 -278.68 267 -278 267 C-277.67 266.01 -277.34 265.02 -277 264 C-276.34 264 -275.68 264 -275 264 C-274.73574219 263.4112207 -274.47148438 262.82244141 -274.19921875 262.21582031 C-272.95631056 259.91927416 -271.64993519 258.39166834 -269.8125 256.546875 C-269.19632813 255.928125 -268.58015625 255.309375 -267.9453125 254.671875 C-266.98238281 253.72054687 -266.98238281 253.72054687 -266 252.75 C-265.03707031 251.77546875 -265.03707031 251.77546875 -264.0546875 250.78125 C-263.43851563 250.16765625 -262.82234375 249.5540625 -262.1875 248.921875 C-261.34251953 248.08027832 -261.34251953 248.08027832 -260.48046875 247.22167969 C-259 246 -259 246 -257 246 C-256.67 245.01 -256.34 244.02 -256 243 C-255.34 243 -254.68 243 -254 243 C-254 242.34 -254 241.68 -254 241 C-253.34 241 -252.68 241 -252 241 C-251.67 240.01 -251.34 239.02 -251 238 C-250.34 238 -249.68 238 -249 238 C-248.731875 237.360625 -248.46375 236.72125 -248.1875 236.0625 C-247 234 -247 234 -244 233 C-243.67 232.01 -243.34 231.02 -243 230 C-242.34 230 -241.68 230 -241 230 C-241 229.34 -241 228.68 -241 228 C-240.34 228 -239.68 228 -239 228 C-238.67 227.01 -238.34 226.02 -238 225 C-237.34 225 -236.68 225 -236 225 C-236 224.34 -236 223.68 -236 223 C-235.34 223 -234.68 223 -234 223 C-233.67 222.01 -233.34 221.02 -233 220 C-232.34 220 -231.68 220 -231 220 C-230.67 219.01 -230.34 218.02 -230 217 C-229.34 217 -228.68 217 -228 217 C-228 216.34 -228 215.68 -228 215 C-227.34 215 -226.68 215 -226 215 C-225.67 214.01 -225.34 213.02 -225 212 C-224.34 212 -223.68 212 -223 212 C-223 211.34 -223 210.68 -223 210 C-221.625 208.375 -221.625 208.375 -220 207 C-219.34 207 -218.68 207 -218 207 C-218 206.34 -218 205.68 -218 205 C-216.625 203.375 -216.625 203.375 -215 202 C-214.34 202 -213.68 202 -213 202 C-212.67 201.01 -212.34 200.02 -212 199 C-211.34 199 -210.68 199 -210 199 C-210 198.34 -210 197.68 -210 197 C-208.625 195.375 -208.625 195.375 -207 194 C-206.34 194 -205.68 194 -205 194 C-205 193.34 -205 192.68 -205 192 C-203.625 190.375 -203.625 190.375 -202 189 C-201.34 189 -200.68 189 -200 189 C-199.67 188.01 -199.34 187.02 -199 186 C-198.34 186 -197.68 186 -197 186 C-197 185.34 -197 184.68 -197 184 C-195.625 182.375 -195.625 182.375 -194 181 C-193.34 181 -192.68 181 -192 181 C-191.79323639 180.46824661 -191.58647278 179.93649323 -191.3734436 179.3886261 C-189.43813256 176.02282756 -186.76254792 173.49304337 -184.02490234 170.78198242 C-183.41323212 170.16841385 -182.80156189 169.55484528 -182.1713562 168.92268372 C-180.14773684 166.89536007 -178.11700413 164.87532922 -176.0859375 162.85546875 C-174.6727003 161.44342439 -173.25983336 160.03100935 -171.84732056 158.61824036 C-168.88290513 155.65538957 -165.91516022 152.69592868 -162.94482422 149.73901367 C-159.15379646 145.96490562 -155.36931372 142.18431936 -151.58711815 138.40136242 C-148.66703562 135.48155317 -145.74434308 132.56436828 -142.82078934 129.64803505 C-141.42567654 128.25608663 -140.0311529 126.86354742 -138.63724899 125.47038841 C-125.9085525 112.75592753 -125.9085525 112.75592753 -119.71096802 107.48536682 C-116.59643613 104.78150429 -113.70714239 101.84973461 -110.796875 98.9296875 C-110.15179993 98.28556915 -109.50672485 97.64145081 -108.84210205 96.97781372 C-107.49311645 95.62950267 -106.14536885 94.27995193 -104.79882812 92.92919922 C-102.74461745 90.86960334 -100.68508383 88.81543826 -98.625 86.76171875 C-97.3069707 85.44302906 -95.98925142 84.12402942 -94.671875 82.8046875 C-94.0614032 82.19623993 -93.4509314 81.58779236 -92.82196045 80.96090698 C-89.65722232 77.77880457 -86.78700948 74.52483933 -84 71 C-82.33333333 69.66666667 -80.66666667 68.33333333 -79 67 C-78.401875 66.236875 -77.80375 65.47375 -77.1875 64.6875 C-75.38171187 62.46896029 -73.79206253 60.90823929 -71.62792969 59.0949707 C-66.31313586 54.49252206 -61.40273231 49.49929327 -56.46103668 44.50563622 C-54.73145619 42.75845218 -52.99817288 41.01501815 -51.26385498 39.27253723 C-46.33936629 34.32376603 -41.42073606 29.36920123 -36.50634766 24.41040039 C-33.48635997 21.3636357 -30.46152207 18.32175668 -27.43364716 15.28283119 C-26.28510512 14.12809004 -25.13846295 12.97145594 -23.99378204 11.81288719 C-22.39785231 10.19774223 -20.7958572 8.58885123 -19.19238281 6.98120117 C-18.28385559 6.06521652 -17.37532837 5.14923187 -16.43927002 4.20549011 C-11.34193496 -0.40331579 -6.69224402 -0.8563535 0 0 Z " fill="#FFFFFF" transform="translate(912,114)"/>
<path d="M0 0 C30.03 0 60.06 0 91 0 C91 31.68 91 63.36 91 96 C60.97 96 30.94 96 0 96 C-1.68172203 92.63655595 -1.07660028 88.83908352 -1.02172852 85.14404297 C-1.01212097 84.22691528 -1.00251343 83.3097876 -0.99261475 82.36486816 C-0.95955072 79.32389831 -0.91924661 76.28306883 -0.87890625 73.2421875 C-0.85461237 71.13754781 -0.83076845 69.03290288 -0.80735779 66.92825317 C-0.74444403 61.38138881 -0.67539807 55.83461687 -0.60510254 50.2878418 C-0.52207497 43.63659565 -0.44661486 36.98525993 -0.36989594 30.3339386 C-0.252415 20.22254492 -0.12528315 10.11131359 0 0 Z " fill="#FFFFFF" transform="translate(244,685)"/>
<path d="M0 0 C30.03 0 60.06 0 91 0 C91 30.69 91 61.38 91 93 C60.97 93 30.94 93 0 93 C0 62.31 0 31.62 0 0 Z " fill="#FFFFFF" transform="translate(244,306)"/>
<path d="M0 0 C17.16 0 34.32 0 52 0 C52 10.56 52 21.12 52 32 C55.3 32 58.6 32 62 32 C62 52.79 62 73.58 62 95 C52.1 95.33 42.2 95.66 32 96 C31.67 107.55 31.34 119.1 31 131 C20.77 131 10.54 131 0 131 C0 108.89 0 86.78 0 64 C9.57 64 19.14 64 29 64 C29 54.1 29 44.2 29 34 C19.43 34 9.86 34 0 34 C0 22.78 0 11.56 0 0 Z " fill="#FFFFFF" transform="translate(438,242)"/>
<path d="M0 0 C0.98484375 0.02707031 1.9696875 0.05414063 2.984375 0.08203125 C3.73203125 0.11683594 4.4796875 0.15164063 5.25 0.1875 C5.58 1.1775 5.91 2.1675 6.25 3.1875 C6.91 3.1875 7.57 3.1875 8.25 3.1875 C10.03031091 5.40326134 11.68336169 7.61476816 13.3125 9.9375 C13.77205078 10.57171875 14.23160156 11.2059375 14.70507812 11.859375 C16.91737811 14.97803577 18.48092397 17.39249149 19.25 21.1875 C19.91 21.1875 20.57 21.1875 21.25 21.1875 C22.48681641 22.62451172 22.48681641 22.62451172 23.8515625 24.6171875 C24.58632813 25.68646484 24.58632813 25.68646484 25.3359375 26.77734375 C25.84382812 27.53144531 26.35171875 28.28554688 26.875 29.0625 C27.390625 29.80886719 27.90625 30.55523437 28.4375 31.32421875 C32.25 36.921937 32.25 36.921937 32.25 39.1875 C32.91 39.1875 33.57 39.1875 34.25 39.1875 C36.03031091 41.40326134 37.68336169 43.61476816 39.3125 45.9375 C40.00182617 46.88882813 40.00182617 46.88882813 40.70507812 47.859375 C42.91737811 50.97803577 44.48092397 53.39249149 45.25 57.1875 C45.91 57.1875 46.57 57.1875 47.25 57.1875 C48.47094727 58.62451172 48.47094727 58.62451172 49.81640625 60.6171875 C50.30173828 61.33003906 50.78707031 62.04289062 51.28710938 62.77734375 C51.79048828 63.53144531 52.29386719 64.28554688 52.8125 65.0625 C53.57336914 66.18205078 53.57336914 66.18205078 54.34960938 67.32421875 C59.81690733 75.40504528 59.81690733 75.40504528 59.25 81.1875 C57.26786669 84.82141108 55.30967577 86.45441878 51.4375 87.6875 C47.99589895 88.65256751 45.28747587 87.90486255 42.06762695 86.40917969 C38.39095401 83.93798138 36.17924307 80.19444036 33.75 76.5625 C32.61979285 74.93008649 31.48829566 73.29856534 30.35546875 71.66796875 C29.55375244 70.50080322 29.55375244 70.50080322 28.73583984 69.31005859 C26.4800488 66.08760586 24.02709779 63.03984341 21.51953125 60.01171875 C20.0158754 57.85108097 19.14593076 55.65449419 18.25 53.1875 C17.59 53.1875 16.93 53.1875 16.25 53.1875 C14.64474451 51.13617162 13.15669578 49.08354445 11.6875 46.9375 C10.78252205 45.64103822 9.87624889 44.34547967 8.96875 43.05078125 C8.51242187 42.39803223 8.05609375 41.7452832 7.5859375 41.07275391 C5.67733196 38.3793599 3.68543199 35.75256196 1.6875 33.125 C0.20669079 31.14706198 -1.27242774 29.16785727 -2.75 27.1875 C-3.16765625 26.63642578 -3.5853125 26.08535156 -4.015625 25.51757812 C-5.29850446 23.81544439 -6.55728295 22.09759832 -7.8125 20.375 C-8.56660156 19.35792969 -9.32070313 18.34085937 -10.09765625 17.29296875 C-12.05036713 13.62298022 -12.11927918 11.28896074 -11.75 7.1875 C-9.80189185 1.34317556 -5.85915219 -0.20925544 0 0 Z " fill="#FFFFFF" transform="translate(561.75,273.8125)"/>
<path d="M0 0 C2.17236328 1.10742188 2.17236328 1.10742188 4.3203125 2.46875 C5.10277344 2.95730469 5.88523437 3.44585937 6.69140625 3.94921875 C7.49449219 4.46097656 8.29757812 4.97273438 9.125 5.5 C10.73009681 6.51307382 12.33680222 7.52360472 13.9453125 8.53125 C14.65187988 8.98048828 15.35844727 9.42972656 16.08642578 9.89257812 C18.10658834 11.14746579 18.10658834 11.14746579 21 12 C21 12.66 21 13.32 21 14 C23.475 14.495 23.475 14.495 26 15 C26 15.66 26 16.32 26 17 C26.56203125 17.11214844 27.1240625 17.22429687 27.703125 17.33984375 C30.31513108 18.09057339 32.39471322 19.21167376 34.75 20.5625 C35.54921875 21.01753906 36.3484375 21.47257812 37.171875 21.94140625 C37.77515625 22.29074219 38.3784375 22.64007813 39 23 C39 23.66 39 24.32 39 25 C39.56823486 25.1131958 40.13646973 25.2263916 40.72192383 25.34301758 C43.26842132 26.07741097 45.18226293 27.14106278 47.44921875 28.51171875 C48.72249023 29.27838867 48.72249023 29.27838867 50.02148438 30.06054688 C50.90126953 30.59744141 51.78105469 31.13433594 52.6875 31.6875 C53.54794922 32.20505859 54.40839844 32.72261719 55.29492188 33.25585938 C59.61423652 35.8695818 63.90074384 38.53479376 68.14453125 41.26953125 C69.2579187 41.98459839 69.2579187 41.98459839 70.39379883 42.71411133 C70.92384521 43.13845459 71.4538916 43.56279785 72 44 C72 44.66 72 45.32 72 46 C72.66 46 73.32 46 74 46 C74.45375395 50.53753954 74.78949577 54.66392197 72.125 58.5625 C68.41412375 61.45698347 66.48306186 62.00095518 61.85546875 61.70703125 C56.51993656 60.38592136 52.2098802 57.2034689 47.72412109 54.14990234 C44.92403854 52.28238764 42.02212172 50.58580203 39.125 48.875 C28.71012747 42.64897238 18.34390043 36.34312198 8 30 C7.06285156 29.42685059 6.12570312 28.85370117 5.16015625 28.26318359 C2.51783325 26.64265252 -0.11718932 25.01092864 -2.75 23.375 C-3.54180664 22.8905542 -4.33361328 22.4061084 -5.14941406 21.90698242 C-12.12315754 17.54107386 -12.12315754 17.54107386 -14 14 C-14.26274852 10.2558336 -14.18823797 7.56471391 -13 4 C-12.34 4 -11.68 4 -11 4 C-11 3.34 -11 2.68 -11 2 C-6.78125104 -0.45276102 -4.6974424 -1.36386021 0 0 Z " fill="#FFFFFF" transform="translate(692,414)"/>
<path d="M0 0 C3.32704894 4.11088842 3.42931789 8.02528969 3.38818359 13.10742188 C3.39344055 13.9096669 3.39869751 14.71191193 3.40411377 15.53846741 C3.41728398 18.18209481 3.40858639 20.8251168 3.3984375 23.46875 C3.40045909 25.31050736 3.40337125 27.15226393 3.40713501 28.99401855 C3.41155432 32.85074498 3.40513995 36.70726271 3.39111328 40.56396484 C3.37402163 45.50375734 3.38386492 50.44306082 3.40183067 55.38283539 C3.41267911 59.18499425 3.4092173 62.98703746 3.4014473 66.78919983 C3.39944822 68.61043862 3.40189428 70.43168796 3.40888596 72.25291443 C3.4165179 74.7997513 3.40487214 77.34579985 3.38818359 79.89257812 C3.39729263 81.01799767 3.39729263 81.01799767 3.40658569 82.16615295 C3.3378365 87.83890249 1.9713013 91.0286987 -2 95 C-6.3704957 95.65481295 -10.5491332 95.76170507 -14.5 93.6875 C-19.37350952 84.95579544 -18.31117955 73.64490594 -18.30078125 63.9296875 C-18.30467873 62.39755133 -18.30901553 60.86541623 -18.31376648 59.33328247 C-18.32117872 56.14126053 -18.32097267 52.94934932 -18.31567383 49.75732422 C-18.30986544 45.68798966 -18.32686726 41.61910823 -18.3500185 37.54984856 C-18.36481539 34.39264322 -18.36561983 31.2355458 -18.36250877 28.07831192 C-18.36301832 26.57855452 -18.36818644 25.07879048 -18.37832069 23.57906723 C-18.42593178 15.55461909 -18.28237788 8.45099279 -15 1 C-10.66778047 -3.33221953 -5.25897798 -2.18297199 0 0 Z " fill="#FFFFFF" transform="translate(645,249)"/>
<path d="M0 0 C1.11317596 -0.0076664 1.11317596 -0.0076664 2.24884033 -0.01548767 C4.69275055 -0.02934456 7.13637753 -0.02842992 9.58032227 -0.02612305 C11.2851624 -0.03001203 12.99000156 -0.03434712 14.69483948 -0.03910828 C18.26485335 -0.04656202 21.83476831 -0.04628529 25.40478516 -0.04101562 C29.97229465 -0.0352211 34.53939862 -0.05215555 39.10684109 -0.0753603 C42.62679905 -0.09011495 46.14665973 -0.090967 49.66664314 -0.08785057 C51.35029974 -0.08836288 53.03396192 -0.09358362 54.71758842 -0.10366249 C57.07501213 -0.11604388 59.43165071 -0.10922564 61.7890625 -0.09765625 C62.47964249 -0.10529999 63.17022247 -0.11294373 63.88172913 -0.12081909 C68.45472345 -0.07138803 71.59047912 0.84101194 75.45922852 3.2746582 C78.27931748 7.50479164 78.12710424 11.30631437 77.45922852 16.2746582 C75.73201342 18.80379459 74.66943529 19.85225012 71.80101013 20.85343933 C68.45431233 21.4554136 65.12984729 21.43910471 61.74072266 21.45166016 C60.58146523 21.46151695 60.58146523 21.46151695 59.39878845 21.47157288 C56.8473195 21.49124652 54.29590914 21.50295284 51.74438477 21.51293945 C50.87168882 21.51701498 49.99899288 21.52109051 49.09985161 21.52528954 C44.48405064 21.54612114 39.86827917 21.56043757 35.25244141 21.56982422 C30.48633486 21.58090559 25.72069299 21.61533346 20.95475101 21.65499592 C17.28729888 21.68113173 13.61995826 21.68951315 9.95242119 21.6931057 C8.19534592 21.69797653 6.43827579 21.70960468 4.68129158 21.72814369 C2.2228606 21.75247977 -0.23435666 21.75158113 -2.69287109 21.74462891 C-3.41666962 21.75743896 -4.14046814 21.77024902 -4.88619995 21.78344727 C-9.70488305 21.73381984 -12.17136819 20.71336052 -15.54077148 17.2746582 C-16.72180648 14.28125153 -16.82309758 11.4688182 -16.54077148 8.2746582 C-14.91029635 4.82557618 -13.76071734 2.91512529 -10.3636322 1.13166809 C-6.87620669 0.07289883 -3.60857414 -0.01290772 0 0 Z " fill="#FFFFFF" transform="translate(706.540771484375,381.725341796875)"/>
<path d="M0 0 C6.05815086 4.61573399 9.41234028 11.7215826 12.6875 18.4375 C15.56516429 24.31119009 18.83075219 29.88731383 22.1796875 35.49853516 C25.33469351 40.8078039 28.28924411 46.1945465 31.15820312 51.66259766 C33.81144491 56.70185799 36.6439607 61.61763625 39.5546875 66.51171875 C42.368541 71.35610977 43.5149127 74.23297781 43 80 C41.625 82.4375 41.625 82.4375 40 84 C39.34 84 38.68 84 38 84 C38 84.66 38 85.32 38 86 C34.37 86 30.74 86 27 86 C27 85.34 27 84.68 27 84 C26.40703125 83.78214844 25.8140625 83.56429687 25.203125 83.33984375 C22.26817335 81.55493521 21.33942024 79.58480667 19.75 76.5625 C19.22921875 75.59441406 18.7084375 74.62632812 18.171875 73.62890625 C17 71 17 71 17 68 C16.34 68 15.68 68 15 68 C13.84917315 65.75243216 12.70423142 63.50218252 11.5625 61.25 C11.23701172 60.61578125 10.91152344 59.9815625 10.57617188 59.328125 C9.02936335 56.26640092 7.6084922 53.39384379 7 50 C6.34 50 5.68 50 5 50 C4.36384766 48.69289063 4.36384766 48.69289063 3.71484375 47.359375 C0.75658844 41.33389843 -2.27071605 35.40838754 -5.6875 29.625 C-6.25984375 28.64917969 -6.8321875 27.67335938 -7.421875 26.66796875 C-8.37480841 25.05694519 -9.3400166 23.45297329 -10.328125 21.86328125 C-13.51189335 16.33652845 -13.41525503 11.2749649 -13 5 C-12.34 5 -11.68 5 -11 5 C-10.67 4.01 -10.34 3.02 -10 2 C-6.24952518 -0.50031654 -4.44143734 -0.53603554 0 0 Z " fill="#FFFFFF" transform="translate(669,434)"/>
<path d="M0 0 C5.10137492 2.33614365 10.20940653 4.65509539 15.34375 6.91796875 C22.5677858 10.10408919 29.74843378 13.28804859 36.76171875 16.921875 C39.23136083 18.11144082 41.74141611 19.05137168 44.3125 20 C48.51370139 21.67386449 51.41797248 23.12695872 54 27 C54.75527894 31.13182008 54.66176561 34.64163901 52.8125 38.4375 C50.45848272 40.46682524 49.0761405 41.3312738 46 42 C39.21042966 41.17800328 33.07261838 38.5641206 26.875 35.8125 C25.95485107 35.4110376 25.03470215 35.0095752 24.08666992 34.59594727 C17.59013777 31.74653147 11.1530652 28.78319446 4.7421875 25.74609375 C0.50851047 23.75210239 -3.77817171 21.88193488 -8.0625 20 C-13.73672973 17.49402338 -19.37245912 14.92839131 -24.9375 12.1875 C-26.03964844 11.64480469 -27.14179687 11.10210937 -28.27734375 10.54296875 C-32.38333101 8.21604627 -32.38333101 8.21604627 -34 6 C-34.91788137 1.5842464 -34.55283199 -2.03766284 -32.3125 -5.9375 C-22.94361893 -14.29352906 -9.61902257 -4.44164498 0 0 Z " fill="#FFFFFF" transform="translate(550,347)"/>
<path d="M0 0 C0.66 0.33 1.32 0.66 2 1 C0.02 2.98 -1.96 4.96 -4 7 C-4.66 6.67 -5.32 6.34 -6 6 C-2.25 1.125 -2.25 1.125 0 0 Z " fill="#FFFFFF" transform="translate(189,245)"/>
</svg>
